<?xml version="1.0" encoding="utf-8"?>
<!-- Generator: Adobe Illustrator 16.0.0, SVG Export Plug-In . SVG Version: 6.00 Build 0)  -->
<!DOCTYPE svg PUBLIC "-//W3C//DTD SVG 1.1//EN" "http://www.w3.org/Graphics/SVG/1.1/DTD/svg11.dtd">
<svg version="1.1" id="Layer_1" xmlns="http://www.w3.org/2000/svg" xmlns:xlink="http://www.w3.org/1999/xlink" x="0px" y="0px"
	 width="595.28px" height="266.286px" viewBox="0 0 595.28 266.286" enable-background="new 0 0 595.28 266.286"
	 xml:space="preserve">
<path fill="#3669B2" d="M244.319,177.03c0,2.621-1.019,4.664-3.058,6.128c-2.037,1.466-4.802,2.202-8.296,2.202
	c-3.784,0-6.696-0.458-8.732-1.364v-3.341c1.311,0.516,2.735,0.924,4.279,1.222c1.543,0.298,3.07,0.448,4.585,0.448
	c2.474,0,4.338-0.439,5.59-1.314c1.251-0.874,1.877-2.094,1.877-3.655c0-1.031-0.221-1.876-0.667-2.535
	c-0.444-0.658-1.186-1.267-2.227-1.823c-1.039-0.555-2.623-1.187-4.748-1.893c-2.969-0.992-5.092-2.165-6.363-3.523
	c-1.275-1.357-1.91-3.13-1.91-5.313c0-2.295,0.923-4.122,2.773-5.479c1.849-1.358,4.293-2.038,7.334-2.038
	c3.174,0,6.091,0.544,8.756,1.63l-1.157,3.014c-2.633-1.032-5.198-1.547-7.685-1.547c-1.963,0-3.501,0.394-4.607,1.181
	c-1.107,0.788-1.66,1.878-1.66,3.279c0,1.03,0.205,1.876,0.611,2.535c0.407,0.658,1.096,1.26,2.064,1.813
	c0.967,0.55,2.449,1.157,4.442,1.822c3.347,1.113,5.65,2.309,6.912,3.585C243.689,173.339,244.319,174.994,244.319,177.03"/>
<path fill="#3669B2" d="M283.069,170.025c0,4.764-1.292,8.512-3.877,11.24c-2.584,2.729-6.176,4.094-10.774,4.094
	c-4.703,0-8.33-1.342-10.883-4.021c-2.555-2.682-3.831-6.465-3.831-11.354c0-4.848,1.28-8.603,3.84-11.272
	c2.563-2.665,6.203-4.001,10.917-4.001c4.586,0,8.167,1.358,10.742,4.074C281.779,161.5,283.069,165.248,283.069,170.025
	 M257.633,170.025c0,4.033,0.921,7.089,2.764,9.175c1.839,2.084,4.514,3.125,8.022,3.125c3.537,0,6.208-1.039,8.014-3.116
	c1.803-2.078,2.706-5.138,2.706-9.184c0-4.006-0.899-7.042-2.696-9.113c-1.798-2.069-4.457-3.105-7.98-3.105
	c-3.535,0-6.226,1.043-8.065,3.125C258.554,163.017,257.633,166.047,257.633,170.025"/>
<polygon fill="#3669B2" points="294.702,184.951 294.702,155.182 298.412,155.182 298.412,181.815 312.494,181.815 312.494,184.951 
	"/>
<path fill="#3669B2" d="M346.531,155.181v19.263c0,3.395-1.1,6.062-3.298,8.002c-2.196,1.942-5.218,2.913-9.062,2.913
	c-3.843,0-6.816-0.979-8.917-2.931c-2.104-1.956-3.156-4.644-3.156-8.065v-19.182h3.713v19.426c0,2.485,0.728,4.393,2.185,5.724
	c1.454,1.331,3.593,1.996,6.417,1.996c2.691,0,4.767-0.67,6.224-2.008c1.454-1.334,2.184-3.254,2.184-5.752v-19.385H346.531z"/>
<polygon fill="#3669B2" points="369.322,184.951 365.609,184.951 365.609,158.255 355.5,158.255 355.5,155.182 379.431,155.182 
	379.431,158.255 369.322,158.255 "/>
<rect x="388.748" y="155.182" fill="#3669B2" width="3.712" height="29.77"/>
<path fill="#3669B2" d="M433.438,170.025c0,4.764-1.293,8.512-3.876,11.24c-2.586,2.729-6.177,4.094-10.775,4.094
	c-4.703,0-8.33-1.342-10.883-4.021c-2.554-2.682-3.832-6.465-3.832-11.354c0-4.848,1.282-8.603,3.842-11.272
	c2.562-2.665,6.204-4.001,10.917-4.001c4.588,0,8.168,1.358,10.743,4.074C432.147,161.5,433.438,165.248,433.438,170.025
	 M408.001,170.025c0,4.033,0.922,7.089,2.763,9.175c1.841,2.084,4.515,3.125,8.022,3.125c3.537,0,6.208-1.039,8.014-3.116
	c1.803-2.078,2.707-5.138,2.707-9.184c0-4.006-0.899-7.042-2.694-9.113c-1.799-2.069-4.46-3.105-7.982-3.105
	c-3.536,0-6.226,1.043-8.066,3.125C408.923,163.017,408.001,166.047,408.001,170.025"/>
<path fill="#3669B2" d="M470.003,184.951h-4.237l-17.444-24.986h-0.174c0.235,2.933,0.35,5.622,0.35,8.064v16.922h-3.43v-29.77
	h4.194l17.402,24.881h0.171c-0.028-0.366-0.092-1.543-0.194-3.532c-0.104-1.99-0.139-3.411-0.109-4.267v-17.083h3.472V184.951z"/>
<path fill="#3669B2" d="M501.307,177.03c0,2.621-1.018,4.664-3.057,6.128c-2.035,1.466-4.803,2.202-8.296,2.202
	c-3.784,0-6.696-0.458-8.731-1.364v-3.341c1.308,0.516,2.735,0.924,4.277,1.222c1.544,0.298,3.073,0.448,4.584,0.448
	c2.476,0,4.341-0.439,5.592-1.314c1.25-0.874,1.879-2.094,1.879-3.655c0-1.031-0.222-1.876-0.668-2.535
	c-0.444-0.658-1.186-1.267-2.229-1.823c-1.038-0.555-2.622-1.187-4.746-1.893c-2.971-0.992-5.093-2.165-6.364-3.523
	c-1.274-1.357-1.909-3.13-1.909-5.313c0-2.295,0.923-4.122,2.771-5.479c1.85-1.358,4.294-2.038,7.335-2.038
	c3.172,0,6.094,0.544,8.757,1.63l-1.157,3.014c-2.634-1.032-5.198-1.547-7.687-1.547c-1.962,0-3.5,0.394-4.604,1.181
	c-1.109,0.788-1.663,1.878-1.663,3.279c0,1.03,0.207,1.876,0.612,2.535c0.409,0.658,1.096,1.26,2.064,1.813
	c0.966,0.55,2.449,1.157,4.442,1.822c3.348,1.113,5.651,2.309,6.909,3.585C500.679,173.339,501.307,174.994,501.307,177.03"/>
<polygon fill-rule="evenodd" clip-rule="evenodd" fill="#3669B2" points="310.311,67.008 303.416,67.008 289.182,124.244 
	270.995,67.008 262.14,67.008 255.245,67.008 255.208,67.008 255.229,67.069 241.01,124.247 222.827,67.008 207.041,67.008 
	228.826,135.583 244.612,135.583 244.568,135.444 245.089,135.583 259.097,79.245 276.996,135.583 292.781,135.583 292.737,135.444 
	293.257,135.583 "/>
<path fill-rule="evenodd" clip-rule="evenodd" fill="#3669B2" d="M392.015,61.496c-21.41,0-38.768,16.132-38.768,36.028
	c0,19.895,17.357,36.025,38.768,36.025c21.414,0,38.776-16.13,38.776-36.025C430.791,77.628,413.429,61.496,392.015,61.496
	 M392.85,127.258c-12.106,0-21.921-13.313-21.921-29.733c0-16.424,9.814-29.736,21.921-29.736c12.108,0,21.923,13.313,21.923,29.736
	C414.772,113.945,404.958,127.258,392.85,127.258"/>
<polygon fill-rule="evenodd" clip-rule="evenodd" fill="#3669B2" points="330.364,128.763 330.364,67.669 316.443,67.669 
	316.443,128.763 316.443,134.921 330.364,134.921 353.244,134.921 353.244,128.763 "/>
<path fill-rule="evenodd" clip-rule="evenodd" fill="#3669B2" d="M502.358,99.692h-12.588v22.465
	c-3.496,3.208-7.697,5.102-12.236,5.102c-12.104,0-21.921-13.314-21.921-29.735c0-16.422,9.83-29.179,21.921-29.736
	c19.502-0.901,24.824,12.671,24.824,12.671l-0.002-4.456v-5.441c-6.835-5.624-15.804-9.066-25.657-9.066
	c-21.411,0-38.771,16.131-38.771,36.027c0,19.895,17.359,36.023,38.771,36.023c9.854,0,18.822-3.442,25.657-9.063v-1.05h0.002
	V99.692z"/>
<polygon fill-rule="evenodd" clip-rule="evenodd" fill="#3669B2" points="94.821,81.752 125.905,63.486 157.274,81.275 
	157.55,117.333 126.46,135.6 95.098,117.812 "/>
<polygon fill-rule="evenodd" clip-rule="evenodd" fill="#3669B2" points="128.622,139.883 159.712,121.615 191.075,139.404 
	191.351,175.463 160.261,193.727 128.9,175.94 "/>
<polygon fill-rule="evenodd" clip-rule="evenodd" fill="#3669B2" points="61.021,139.883 92.105,121.615 123.469,139.404 
	123.746,175.463 92.658,193.727 61.296,175.94 "/>
</svg>
